<?xml version="1.0" ?><!DOCTYPE svg  PUBLIC '-//W3C//DTD SVG 1.1//EN'  'http://www.w3.org/Graphics/SVG/1.1/DTD/svg11.dtd'>
<svg
   style="shape-rendering:geometricPrecision; text-rendering:geometricPrecision; image-rendering:optimizeQuality; fill-rule:evenodd; clip-rule:evenodd"
   version="1.1"
   viewBox="0 0 2116 1134.2346"
   xml:space="preserve"
   xmlns="http://www.w3.org/2000/svg"
   xmlns:xlink="http://www.w3.org/1999/xlink"
>
  <g id="Layer_x0020_1" transform="translate(-592,-1083)">
   <g id="_221226120">
      <path fill="#000000" d="M2708 1083l-2116 0c0,584 474,1058 1058,1058 584,0 1058,-474 1058,-1058z"/>
      <path fill="#000000" d="M1317 2071l652 0 53 98c38,55 -18,49 -119,47 -119,-3 -211,0 -306,0 -79,0 -159,1 -258,0 -83,-1 -100,6 -54,-85l32 -60z"/>
      <path fill="#000000" d="M1650 2071l0 -987 -1058 0c0,465 300,860 717,1002l8 -14 333 0z"/>
      <path fill="#000000" d="M1650 2071l-333 0 -8 14 -25 45c-46,91 -29,84 54,85 99,1 179,0 258,0 18,0 35,0 53,0l0 -74 0 -70z"/>
   </g>
</g></svg>